<svg width="48" height="48" viewBox="0 0 48 48" fill="none" xmlns="http://www.w3.org/2000/svg" role="img" aria-labelledby="liflyMarkTitle">
  <title id="liflyMarkTitle">Lifly mark</title>
  <defs>
    <linearGradient id="lifly-mark-gradient" x1="8" y1="41" x2="40" y2="7" gradientUnits="userSpaceOnUse">
      <stop stop-color="#2A9D8F"/>
      <stop offset="0.55" stop-color="#4361EE"/>
      <stop offset="1" stop-color="#7C5CFF"/>
    </linearGradient>
    <linearGradient id="lifly-flow-gradient" x1="14" y1="34" x2="35" y2="12" gradientUnits="userSpaceOnUse">
      <stop stop-color="#B9F5EA"/>
      <stop offset="1" stop-color="#FFFFFF"/>
    </linearGradient>
  </defs>
  <rect x="4" y="4" width="40" height="40" rx="12" fill="#F7FAFF"/>
  <path d="M13.6 35.1C15 25.2 21.9 16.6 32.5 10.6C34.6 9.4 36.8 11.4 36 13.7C33.7 20.1 29.6 24.9 23.7 28C26.3 29.5 29.7 30 34.2 29.3C36.7 28.9 38 32.1 36 33.7C30.1 38.7 22.3 39 13.6 35.1Z" fill="url(#lifly-mark-gradient)"/>
  <path d="M13.6 35.1C16.4 28 22.3 22.5 31 18.5" stroke="url(#lifly-flow-gradient)" stroke-width="3.8" stroke-linecap="round"/>
  <circle cx="19.3" cy="29.3" r="2.6" fill="#FFFFFF" fill-opacity="0.92"/>
  <circle cx="26.7" cy="22.5" r="2.6" fill="#FFFFFF" fill-opacity="0.92"/>
  <circle cx="33" cy="14.5" r="2.6" fill="#FFFFFF" fill-opacity="0.92"/>
</svg>
